<svg width="55" height="63" viewBox="0 0 55 63" fill="none" xmlns="http://www.w3.org/2000/svg">
<path d="M53.7865 0H32.0385C31.3682 0 30.8247 0.550881 30.8247 1.23047V8.94772C30.8247 11.1121 32.5618 12.8728 34.6968 12.8728H34.7513V17.3229H20.249V12.8728H20.3035C22.4387 12.8728 24.1757 11.112 24.1757 8.94772V1.23047C24.1757 0.550881 23.6321 0 22.9619 0H1.21385C0.543561 0 0 0.550881 0 1.23047V8.94772C0 11.1121 1.73714 12.8728 3.87217 12.8728H3.92655V44.9061C3.92655 45.5855 4.47011 46.1365 5.1404 46.1365H5.691V52.9268C4.21059 53.0897 3.05452 54.3643 3.05452 55.9077V61.7695C3.05452 62.449 3.59808 63 4.26837 63H19.907C20.5773 63 21.1208 62.449 21.1208 61.7695V55.9076C21.1208 54.3642 19.9647 53.0897 18.4843 52.9266V46.1364H19.0349C19.7053 46.1364 20.2488 45.5854 20.2488 44.906V39.3115H34.7512V44.906C34.7512 45.5854 35.2948 46.1364 35.9651 46.1364H36.5157V52.9266C35.0353 53.0896 33.8792 54.3642 33.8792 55.9076V61.7695C33.8792 62.449 34.4228 63 35.093 63H50.7316C51.4019 63 51.9455 62.449 51.9455 61.7695V55.9076C51.9455 54.3642 50.7894 53.0897 49.309 52.9266V46.1364H49.8596C50.5299 46.1364 51.0734 45.5854 51.0734 44.906V23.7001C51.0734 23.0206 50.5299 22.4696 49.8596 22.4696C49.1892 22.4696 48.6458 23.0206 48.6458 23.7001V43.6756H37.1788V12.8728H51.1278C53.263 12.8728 55 11.112 55 8.94772V1.23047C55.0004 0.550881 54.4568 0 53.7865 0V0ZM2.42769 8.94772V2.46094H21.748V8.94772C21.748 9.75516 21.0999 10.4119 20.3035 10.4119H3.87229C3.07577 10.4119 2.42769 9.75503 2.42769 8.94772ZM17.8213 12.8728V43.6756H6.35437V12.8728H17.8213ZM18.6932 55.9076V60.5391H5.48234V55.9076C5.48234 55.6112 5.72025 55.37 6.01267 55.37H18.1629C18.4553 55.37 18.6932 55.6112 18.6932 55.9076ZM16.0569 52.909H8.11881V46.1365H16.0568V52.909H16.0569ZM20.249 36.8507V19.7838H34.7515V36.8507H20.249ZM49.518 55.9076V60.5391H36.3071V55.9076C36.3071 55.6112 36.545 55.37 36.8375 55.37H48.9877C49.2801 55.37 49.518 55.6112 49.518 55.9076ZM46.8816 46.1365V52.909H38.9435V46.1365H46.8816ZM52.5727 8.94772C52.5727 9.75516 51.9246 10.4119 51.1282 10.4119H34.6968C33.9004 10.4119 33.2524 9.75503 33.2524 8.94772V2.46094H52.5727V8.94772Z" fill="#FB7B6B"/>
</svg>
