<svg width="82" height="34" viewBox="0 0 82 34" fill="none" xmlns="http://www.w3.org/2000/svg">
<g clip-path="url(#clip0)">
<path d="M20.7252 24.0665C20.7024 23.589 20.5591 23.1648 20.2983 22.8032C19.9817 22.3623 19.5426 22.0339 18.9986 21.8251C18.4774 21.6131 17.9072 21.5715 17.3125 21.7054C16.5644 21.8688 15.9587 22.3014 15.5077 22.9964C15.4235 22.6382 15.2765 22.348 15.0668 22.1326C14.7608 21.8163 14.3322 21.6567 13.7954 21.6567H13.7514C12.2053 21.6567 11.2678 22.8591 10.9651 25.2307L10.9267 25.5385H11.9745L12.0214 25.3243C12.48 23.2761 12.8837 23.1195 12.9627 23.1111C12.9872 23.1892 13.0346 23.4827 12.8139 24.3844L10.9355 32.5704H13.986L15.3221 26.8605C15.8243 24.6767 16.2334 23.8511 16.4853 23.5487C16.7913 23.1959 17.1151 23.0258 17.4786 23.0258C17.6781 23.0258 17.8358 23.1128 17.9774 23.3005C18.0264 23.3647 18.1312 23.5541 18.2923 24.103C18.4284 24.4819 18.5476 24.7443 18.6575 24.9127C18.8502 25.1857 19.1106 25.3558 19.431 25.4184L19.4678 25.4222C19.8875 25.4499 20.2091 25.3369 20.4416 25.0849C20.6572 24.8413 20.7514 24.4995 20.7248 24.0665H20.7252ZM29.1366 28.1259C28.5435 29.33 27.8178 30.2577 26.9729 30.8851C26.2645 31.4323 25.4897 31.6389 24.701 31.5138C23.6705 31.3349 23.2089 30.4072 23.2947 28.6782C24.0181 28.6122 24.7355 28.492 25.4407 28.3187C26.2075 28.1237 26.9515 27.8492 27.6606 27.4997C28.402 27.1352 29.0017 26.664 29.4358 26.1067C29.9236 25.5141 30.1789 24.8485 30.195 24.1329C30.2279 23.2828 29.8974 22.6193 29.2207 22.1641C28.6332 21.747 27.8808 21.5366 26.9851 21.5366C26.9395 21.5366 26.8921 21.5366 26.8456 21.5383C26.1563 21.5543 25.4161 21.721 24.6414 22.0389C23.8987 22.3479 23.2098 22.7712 22.5998 23.2933C21.3233 24.4508 20.5308 25.7955 20.2425 27.2881C19.9361 28.8399 20.1373 30.143 20.8457 31.1665C21.612 32.2248 22.7731 32.7615 24.2969 32.7615C25.5983 32.7615 26.7455 32.3793 27.7092 31.6251C28.6399 30.878 29.4409 29.7781 30.0914 28.3619L30.2702 27.9743H29.2101L29.1366 28.1255V28.1259ZM24.5999 24.4155C25.2767 23.3278 25.9538 22.7457 26.6182 22.6903C26.6605 22.6848 26.7007 22.6831 26.7408 22.6831C26.9767 22.6831 27.311 22.7629 27.4754 23.4618C27.6521 24.2177 27.4894 25.0253 26.9944 25.8543C26.6009 26.4834 26.0899 26.916 25.4343 27.173C24.8413 27.4061 24.1502 27.5657 23.3771 27.6526C23.561 26.5145 23.9701 25.4268 24.5999 24.4155ZM38.4245 22.374C37.8628 21.8789 37.1248 21.6047 36.2291 21.5593C35.1238 21.5005 34.1512 21.7365 33.3414 22.2632C32.5611 22.7654 32.026 23.4483 31.7462 24.3013C31.332 25.6998 31.7183 26.8139 32.9094 27.6165C33.3137 27.8559 33.7249 28.0836 34.1424 28.2994C35.1779 28.805 35.5085 28.9789 35.5964 29.0309C36.0368 29.309 36.1873 29.5177 36.2431 29.6567C36.3851 29.9725 36.3902 30.2837 36.2592 30.6121C36.107 31.017 35.8077 31.3021 35.3462 31.4861C34.8368 31.6809 34.2371 31.7208 33.5984 31.6112C33.0371 31.502 32.6486 31.3382 32.4529 31.1316C32.3132 30.9837 32.2346 30.7889 32.2327 30.5861C32.245 30.4017 32.3113 30.1913 32.4318 29.9603C32.6474 29.6269 32.7623 29.3472 32.7885 29.1124C32.8431 28.7092 32.7644 28.3985 32.5561 28.1864C32.3566 27.9638 32.0928 27.8424 31.7551 27.8214C31.3823 27.8214 31.0661 27.9449 30.8104 28.1897C30.5306 28.4682 30.3611 28.8432 30.3015 29.3195C30.2541 29.9015 30.3399 30.4088 30.5551 30.8276C30.7736 31.2584 31.1046 31.6528 31.5467 31.9988C32.2082 32.4957 33.114 32.7476 34.2404 32.7476C34.2895 32.7476 34.3385 32.7476 34.3892 32.746C35.3597 32.7233 36.1417 32.5217 36.7102 32.1484C37.646 31.5402 38.272 30.7599 38.5712 29.8251C38.977 28.5148 38.7023 27.4565 37.758 26.6837C37.4816 26.4452 36.8556 26.0857 35.853 25.5834C34.8246 25.0345 34.4104 24.7133 34.2459 24.5356C34.057 24.2509 34.0325 23.9208 34.1669 23.5386C34.3825 23.0031 34.9104 22.7251 35.7781 22.6869C36.2186 22.668 36.5791 22.7411 36.8433 22.9011C36.9532 22.9683 37.0284 23.0918 37.0775 23.2883C37.0969 23.3542 37.1231 23.521 37.088 23.9141C37.0724 24.2458 37.0897 24.494 37.1388 24.6679C37.2736 25.1769 37.6494 25.4587 38.1955 25.4587L38.2563 25.4566C38.7568 25.4289 39.1046 25.158 39.2395 24.6784C39.3198 24.3156 39.3114 23.939 39.215 23.5802C39.0962 23.1283 38.8265 22.7184 38.4245 22.374ZM48.2684 21.9956C47.7015 21.7 46.9914 21.5488 46.152 21.5488C44.5462 21.5715 43.1104 22.1397 41.8859 23.2379C40.6161 24.3605 39.8219 25.7086 39.5244 27.2499C39.2412 28.8138 39.4424 30.1203 40.1296 31.1438C40.8888 32.195 42.0469 32.7283 43.5703 32.7283H43.5736C44.8539 32.7199 45.9926 32.3306 46.9602 31.5734C47.9205 30.8242 48.7303 29.7331 49.3686 28.3271L49.5436 27.9415H48.4767L48.4015 28.0927C47.8085 29.2636 47.0772 30.1867 46.2217 30.8364C45.6465 31.2967 45.0568 31.5192 44.4186 31.5192C44.2715 31.5192 44.1214 31.5066 43.9743 31.4827C43.5318 31.4063 43.2046 31.2064 42.9722 30.8712C42.4857 30.1674 42.4248 28.8764 42.79 27.0378C42.9143 26.4834 43.1138 25.8997 43.3796 25.3075C43.6734 24.7112 44.0931 24.1291 44.6248 23.5802C45.1638 23.0451 45.739 22.7428 46.3515 22.6764C46.9128 22.5882 47.3063 22.6869 47.5532 22.9947C47.6982 23.1703 47.7506 23.3475 47.7193 23.547L47.7176 23.568C47.6982 23.8044 47.5756 24.1291 47.3503 24.5394C47.2345 24.7599 47.1664 24.9564 47.1385 25.142C47.1001 25.4427 47.1804 25.7224 47.3765 25.9727L47.4112 26.0093C47.6263 26.1987 47.8731 26.2944 48.1441 26.2944C48.1792 26.2944 48.2143 26.2923 48.2438 26.2907C48.6357 26.2646 48.9751 26.0807 49.2583 25.7363C49.5013 25.4238 49.6556 25.0396 49.7203 24.5931C49.7917 24.0388 49.6835 23.5226 49.3965 23.0603C49.1657 22.6109 48.7844 22.251 48.2684 21.9956ZM8.86609 21.9956C8.2997 21.7 7.58959 21.5488 6.74973 21.5488C5.14396 21.5715 3.70981 22.1397 2.4853 23.2379C1.21557 24.3605 0.421355 25.7086 0.124211 27.2499C-0.158985 28.8138 0.041788 30.1203 0.729489 31.1438C1.48862 32.195 2.64634 32.7283 4.17011 32.7283H4.17138C5.4521 32.7199 6.59038 32.3306 7.55789 31.5734C8.51822 30.8242 9.32977 29.7331 9.96632 28.3271L10.1413 27.9415H9.07447L8.99923 28.0927C8.40452 29.2636 7.67497 30.1867 6.81989 30.8364C6.2442 31.2967 5.65498 31.5192 5.018 31.5192C4.87133 31.5192 4.72086 31.5066 4.57419 31.4827C4.13122 31.4063 3.80407 31.2064 3.57159 30.8712C3.08551 30.1674 3.02422 28.8764 3.38984 27.0378C3.51411 26.4834 3.71319 25.8997 3.97906 25.3075C4.27324 24.7112 4.69296 24.1291 5.2247 23.5802C5.7615 23.0451 6.33888 22.7428 6.95092 22.6764C7.51224 22.5882 7.90618 22.6869 8.1526 22.9947C8.29631 23.1703 8.35042 23.3475 8.31872 23.547L8.31533 23.568C8.29758 23.8044 8.17543 24.1291 7.94972 24.5394C7.83432 24.7599 7.76416 24.9564 7.73838 25.142C7.69949 25.4427 7.78191 25.7224 7.97592 25.9727L8.011 26.0093C8.22615 26.1987 8.47257 26.2944 8.74562 26.2944C8.78028 26.2944 8.81537 26.2923 8.84538 26.2907C9.2372 26.2646 9.57661 26.0807 9.85981 25.7363C10.1028 25.4238 10.2567 25.0396 10.3231 24.5931C10.3949 24.0388 10.2863 23.5226 9.99972 23.0603C9.76344 22.6109 9.38049 22.251 8.86609 21.9956ZM58.952 27.9726L58.8768 28.1255C58.2838 29.33 57.558 30.2577 56.7131 30.8847C56.0047 31.4323 55.2299 31.6406 54.4412 31.5138C53.409 31.3349 52.9474 30.4072 53.0345 28.6782C53.7581 28.6124 54.4756 28.4922 55.1809 28.3187C55.9476 28.124 56.6916 27.8495 57.4004 27.4997C58.1422 27.1352 58.7403 26.664 59.1739 26.1067C59.6621 25.5141 59.9174 24.8485 59.9331 24.1329C59.9665 23.2828 59.6359 22.6193 58.9605 22.1641C58.3713 21.747 57.6193 21.5366 56.7253 21.5366C56.678 21.5366 56.6307 21.5366 56.5854 21.5383C55.896 21.5543 55.1564 21.721 54.3816 22.0389C53.6389 22.3475 52.95 22.7709 52.3405 23.2933C51.0652 24.4508 50.271 25.7955 49.9823 27.2881C49.6763 28.8415 49.8775 30.143 50.5859 31.1665C51.3522 32.2248 52.5133 32.7615 54.0371 32.7615C55.3381 32.7615 56.4857 32.3793 57.4494 31.6251C58.3801 30.8763 59.1811 29.7781 59.8316 28.3619L60.01 27.9743H58.952V27.9726ZM54.3376 24.4159C55.0148 23.3282 55.6915 22.7461 56.3563 22.6907C56.3982 22.6852 56.44 22.6836 56.4785 22.6836C56.7148 22.6836 57.0487 22.7633 57.2131 23.4622C57.3898 24.2181 57.2254 25.0257 56.7321 25.8547C56.3458 26.475 55.8191 26.9181 55.172 27.1734C54.579 27.4065 53.8883 27.5661 53.1152 27.653C53.2987 26.5149 53.7099 25.4272 54.3376 24.4159Z" fill="#424344"/>
<path d="M69.7897 24.0664C69.7668 23.5889 69.6214 23.1648 69.3628 22.8032C69.0462 22.3622 68.607 22.0338 68.063 21.8251C67.5418 21.613 66.9716 21.5714 66.3769 21.7054C65.6284 21.8687 65.0231 22.3013 64.5721 22.9964C64.488 22.6381 64.3392 22.3479 64.1312 22.1325C63.8252 21.8163 63.3966 21.6567 62.8577 21.6567H62.8142C61.268 21.6567 60.3305 22.859 60.0295 25.2306L59.9894 25.5384H61.0368L61.0841 25.3242C61.5423 23.2761 61.9464 23.1194 62.0254 23.111C62.0495 23.1891 62.0952 23.481 61.8767 24.3843L59.9978 32.5703H63.0483L64.3848 26.8605C64.887 24.6766 65.2961 23.851 65.5481 23.5486C65.8541 23.1958 66.1774 23.0258 66.5414 23.0258C66.7409 23.0258 66.8981 23.1127 67.0401 23.3004C67.0887 23.3647 67.194 23.5541 67.3567 24.103C67.4928 24.4818 67.612 24.7443 67.7219 24.9127C67.9146 25.1856 68.1733 25.3557 68.4933 25.4183L68.5301 25.4221C68.9498 25.4481 69.2702 25.3368 69.5043 25.0849C69.7212 24.8413 69.8159 24.4994 69.7897 24.0664Z" fill="#424344"/>
<path d="M34.2354 5.3374V9.13937H24.5856C24.2179 9.13937 23.9208 9.4346 23.9208 9.79956V14.2617H20.0942V5.3374H34.2359H34.2354Z" fill="#8EC73F"/>
<path d="M44.5446 10.4614H25.2433V14.2634H44.5446V10.4614Z" fill="#27A9E1"/>
<path d="M49.7009 14.2649H45.8739V9.80102C45.8739 9.43607 45.5764 9.14083 45.2091 9.14083H40.7177V5.33887H45.2091C45.5764 5.33887 45.8739 5.04363 45.8739 4.67868V0.214844H49.7009V14.2649Z" fill="#FCA70C"/>
<path fill-rule="evenodd" clip-rule="evenodd" d="M70.8458 27.6025V28.5928H68.8343C68.4776 28.5928 68.1944 28.678 67.9826 28.8468C67.7709 29.0148 67.6364 29.2047 67.5768 29.4096C67.5172 29.6162 67.4754 29.8056 67.4475 29.9795C67.4213 30.155 67.4052 30.3289 67.4052 30.5007V30.6934C67.4052 30.7682 67.4073 30.8518 67.4141 30.9404C67.4213 31.029 67.4297 31.1369 67.4475 31.2617C67.4631 31.3885 67.4999 31.5241 67.5557 31.6686C67.6136 31.8143 67.6922 31.9483 67.7937 32.0697C67.9302 32.2104 68.0769 32.2973 68.2328 32.3322C68.3884 32.3687 68.5896 32.3842 68.8398 32.3842H70.8458V33.3905H68.7925C68.4057 33.3905 68.0752 33.3556 67.8042 33.2897C67.5295 33.2216 67.2569 33.0881 66.9821 32.8832C66.655 32.6035 66.4187 32.2679 66.2843 31.8769C66.1478 31.4863 66.0797 31.0605 66.0797 30.6031V30.2575C66.0797 30.0475 66.1004 29.8438 66.1427 29.6444C66.1879 29.4461 66.242 29.2584 66.3071 29.0812C66.3718 28.904 66.447 28.7494 66.5324 28.6138C66.6199 28.4798 66.7475 28.3307 66.9158 28.1619C67.0857 27.9932 67.2938 27.8675 67.5227 27.7952C67.7397 27.7217 67.9634 27.6693 68.1906 27.639C68.3973 27.6113 68.6069 27.5991 68.8187 27.5991H70.8458V27.6025ZM74.5329 33.3922H73.0429L71.1134 27.6025H72.4115L73.7547 32.0558L74.9002 27.6025H76.3432L77.6552 32.0558L78.9042 27.6025H80.1545L78.3704 33.3922H76.861L75.6281 29.0833L74.5329 33.3922Z" fill="#FCA70C"/>
<path d="M82 27.6025H80.7197V33.3939H82V27.6025Z" fill="#FCA70C"/>
</g>
<defs>
<clipPath id="clip0">
<path d="M0 0.214844H82V33.3923H0V0.214844Z" fill="white"/>
</clipPath>
</defs>
</svg>
