<svg width="50" height="50" viewBox="0 0 50 50" fill="none" xmlns="http://www.w3.org/2000/svg">
<path d="M11.7188 19.8242H7.85947C8.51143 10.9375 15.9498 3.90625 25 3.90625C32.1615 3.90625 38.6418 8.41699 41.1255 15.1308C41.4997 16.1424 42.6231 16.6591 43.635 16.285C44.6466 15.9106 45.1634 14.7872 44.7892 13.7755C43.3089 9.77393 40.6791 6.34971 37.1843 3.87295C33.6091 1.33926 29.3958 0 25 0C19.3657 0 14.0686 2.19414 10.0845 6.17822C6.15234 10.1104 3.96533 15.3217 3.90889 20.8737C1.57471 22.2263 0 24.7503 0 27.6367V34.2773C0 38.5852 3.50469 42.0898 7.8125 42.0898H11.7188C12.7975 42.0898 13.6719 41.2154 13.6719 40.1367V21.7773C13.6719 20.6986 12.7975 19.8242 11.7188 19.8242ZM9.76562 38.1836H7.8125C5.65859 38.1836 3.90625 36.4312 3.90625 34.2773V27.6367C3.90625 25.4828 5.65859 23.7305 7.8125 23.7305H9.76562V38.1836Z" fill="#D7385E"/>
<path d="M42.1875 19.8242H38.2812C37.2025 19.8242 36.3281 20.6986 36.3281 21.7773V42.1875C36.3281 43.2645 35.452 44.1406 34.375 44.1406H28.418V44.2025C27.7518 43.0011 26.4711 42.1875 25 42.1875C22.8427 42.1875 21.0938 43.9364 21.0938 46.0938C21.0938 48.2511 22.8427 50 25 50C26.4711 50 27.7518 49.1864 28.418 47.985V48.0469H34.375C37.6059 48.0469 40.2344 45.4184 40.2344 42.1875V42.0898H42.1875C46.4953 42.0898 50 38.5852 50 34.2773V27.6367C50 23.3289 46.4953 19.8242 42.1875 19.8242ZM46.0938 34.2773C46.0938 36.4312 44.3414 38.1836 42.1875 38.1836H40.2344V23.7305H42.1875C44.3414 23.7305 46.0938 25.4828 46.0938 27.6367V34.2773Z" fill="#D7385E"/>
</svg>
