<svg width="55" height="25" viewBox="0 0 55 25" fill="none" xmlns="http://www.w3.org/2000/svg">
<path d="M53.9044 0H18.4026C17.7975 0 17.307 0.491781 17.307 1.09848V3.17018H6.86456C6.25945 3.17018 5.76896 3.66196 5.76896 4.26866C5.76896 4.87536 6.25945 5.36714 6.86456 5.36714H17.307V19.6329H11.0657C10.4606 19.6329 9.97013 20.1246 9.97013 20.7313C9.97013 21.338 10.4606 21.8298 11.0657 21.8298H17.307V23.9015C17.307 24.5082 17.7975 25 18.4026 25H53.9044C54.5095 25 55 24.5082 55 23.9015V1.09848C55 0.491781 54.5095 0 53.9044 0ZM51.2017 2.19696L36.1551 14.5814L21.1771 2.19696H51.2017ZM52.8088 22.8031H19.4983V3.65647L35.4565 16.8514C35.6589 17.0186 35.9062 17.1024 36.1536 17.1024C36.4001 17.1024 36.6468 17.0193 36.8487 16.853L52.8088 3.71668V22.8031Z" fill="#D7385E"/>
<path d="M12.8555 11.2903H1.0956C0.490489 11.2903 0 11.7821 0 12.3888C0 12.9955 0.490489 13.4872 1.0956 13.4872H12.8555C13.4606 13.4872 13.9511 12.9955 13.9511 12.3888C13.9512 11.7821 13.4606 11.2903 12.8555 11.2903Z" fill="#D7385E"/>
<path d="M7.45019 19.6329H6.86463C6.25952 19.6329 5.76903 20.1247 5.76903 20.7314C5.76903 21.3381 6.25952 21.8299 6.86463 21.8299H7.45019C8.0553 21.8299 8.54579 21.3381 8.54579 20.7314C8.54579 20.1247 8.0553 19.6329 7.45019 19.6329Z" fill="#D7385E"/>
</svg>
