<svg width="34" height="16" viewBox="0 0 34 16" fill="none" xmlns="http://www.w3.org/2000/svg">
<path d="M33.3228 0.29303H11.3763C11.0022 0.29303 10.699 0.596241 10.699 0.970307V2.24763H4.24363C3.86957 2.24763 3.56636 2.55084 3.56636 2.92491C3.56636 3.29897 3.86957 3.60218 4.24363 3.60218H10.699V12.3978H6.84071C6.46665 12.3978 6.16344 12.701 6.16344 13.0751C6.16344 13.4492 6.46665 13.7524 6.84071 13.7524H10.699V15.0297C10.699 15.4038 11.0022 15.707 11.3763 15.707H33.3228C33.6969 15.707 34.0001 15.4038 34.0001 15.0297V0.970307C34.0001 0.596241 33.6969 0.29303 33.3228 0.29303ZM31.652 1.64758L22.3505 9.2833L13.0914 1.64758H31.652ZM32.6455 14.3525H12.0536V2.54745L21.9186 10.6829C22.0438 10.786 22.1966 10.8377 22.3496 10.8377C22.502 10.8377 22.6544 10.7864 22.7793 10.6839L32.6455 2.58458V14.3525Z" fill="white"/>
<path d="M7.94703 7.25413H0.677277C0.303211 7.25413 0 7.55734 0 7.93141C0 8.30548 0.303211 8.60869 0.677277 8.60869H7.94703C8.3211 8.60869 8.62431 8.30548 8.62431 7.93141C8.62438 7.55734 8.3211 7.25413 7.94703 7.25413Z" fill="white"/>
<path d="M4.60562 12.3979H4.24364C3.86957 12.3979 3.56636 12.7011 3.56636 13.0752C3.56636 13.4492 3.86957 13.7524 4.24364 13.7524H4.60562C4.97969 13.7524 5.2829 13.4492 5.2829 13.0752C5.2829 12.7011 4.97969 12.3979 4.60562 12.3979Z" fill="white"/>
</svg>
