<svg width="128" height="34" viewBox="0 0 128 34" fill="none" xmlns="http://www.w3.org/2000/svg">
    <rect width="34" height="34" fill="#044FAD" />
    <path d="M18.3921 24.4865V21.5383C18.3921 21.1383 18.7164 20.8143 19.1161 20.8143C20.5427 20.8143 21.3187 19.3513 21.4264 16.4633H19.1161C18.7164 16.4633 18.3921 16.1388 18.3921 15.7392V9.51403C18.3921 9.11416 18.7164 8.79016 19.1161 8.79016H25.2757C25.6754 8.79016 25.9998 9.11451 25.9998 9.51403V15.7393C25.9998 17.1236 25.86 18.3939 25.5857 19.5158C25.3038 20.666 24.8712 21.6715 24.3001 22.5047C23.7127 23.361 22.9774 24.0329 22.1157 24.5009C21.2476 24.9718 20.2384 25.2108 19.1158 25.2108C18.7164 25.2105 18.3921 24.8862 18.3921 24.4865ZM9.05444 20.8141C8.65472 20.8141 8.33057 21.1383 8.33057 21.5378V24.4866C8.33057 24.8862 8.65472 25.2103 9.05444 25.2103C10.1764 25.2103 11.1861 24.9712 12.0537 24.5003C12.9158 24.0324 13.6511 23.361 14.2384 22.5042C14.8099 21.6709 15.2424 20.6654 15.5243 19.5147C15.7988 18.3928 15.9382 17.1224 15.9382 15.7387V9.51342C15.9382 9.11355 15.6138 8.78955 15.2142 8.78955H9.05444C8.65472 8.78955 8.33057 9.11385 8.33057 9.51342V15.7387C8.33057 16.1385 8.65472 16.4627 9.05444 16.4627H11.3323C11.2259 19.351 10.461 20.8141 9.05444 20.8141Z" fill="white" />
    <path d="M51.392 7.28C51.2147 6.95333 50.958 6.706 50.622 6.538C50.2953 6.36067 49.908 6.272 49.46 6.272C48.6853 6.272 48.0647 6.52867 47.598 7.042C47.1313 7.546 46.898 8.22267 46.898 9.072C46.898 9.97733 47.1407 10.6867 47.626 11.2C48.1207 11.704 48.7973 11.956 49.656 11.956C50.244 11.956 50.7387 11.8067 51.14 11.508C51.5507 11.2093 51.8493 10.78 52.036 10.22H48.998V8.456H54.206V10.682C54.0287 11.2793 53.7253 11.8347 53.296 12.348C52.876 12.8613 52.3393 13.2767 51.686 13.594C51.0327 13.9113 50.2953 14.07 49.474 14.07C48.5033 14.07 47.6353 13.86 46.87 13.44C46.114 13.0107 45.5213 12.418 45.092 11.662C44.672 10.906 44.462 10.0427 44.462 9.072C44.462 8.10133 44.672 7.238 45.092 6.482C45.5213 5.71667 46.114 5.124 46.87 4.704C47.626 4.27467 48.4893 4.06 49.46 4.06C50.636 4.06 51.6253 4.34467 52.428 4.914C53.24 5.48333 53.7767 6.272 54.038 7.28H51.392ZM57.9261 6.09V8.078H61.1321V9.926H57.9261V12.082H61.5521V14H55.5321V4.172H61.5521V6.09H57.9261ZM65.5003 6.09V8.078H68.7063V9.926H65.5003V12.082H69.1263V14H63.1063V4.172H69.1263V6.09H65.5003ZM76.3785 14L73.0745 9.66V14H70.6805V4.172H73.0745V8.484L76.3505 4.172H79.1645L75.3565 8.988L79.3045 14H76.3785ZM48.424 30.098C47.7053 30.098 47.0613 29.9813 46.492 29.748C45.9227 29.5147 45.4653 29.1693 45.12 28.712C44.784 28.2547 44.6067 27.704 44.588 27.06H47.136C47.1733 27.424 47.2993 27.704 47.514 27.9C47.7287 28.0867 48.0087 28.18 48.354 28.18C48.7087 28.18 48.9887 28.1007 49.194 27.942C49.3993 27.774 49.502 27.5453 49.502 27.256C49.502 27.0133 49.418 26.8127 49.25 26.654C49.0913 26.4953 48.8907 26.3647 48.648 26.262C48.4147 26.1593 48.0787 26.0427 47.64 25.912C47.0053 25.716 46.4873 25.52 46.086 25.324C45.6847 25.128 45.3393 24.8387 45.05 24.456C44.7607 24.0733 44.616 23.574 44.616 22.958C44.616 22.0433 44.9473 21.3293 45.61 20.816C46.2727 20.2933 47.136 20.032 48.2 20.032C49.2827 20.032 50.1553 20.2933 50.818 20.816C51.4807 21.3293 51.8353 22.048 51.882 22.972H49.292C49.2733 22.6547 49.1567 22.4073 48.942 22.23C48.7273 22.0433 48.452 21.95 48.116 21.95C47.8267 21.95 47.5933 22.0293 47.416 22.188C47.2387 22.3373 47.15 22.5567 47.15 22.846C47.15 23.1633 47.2993 23.4107 47.598 23.588C47.8967 23.7653 48.3633 23.9567 48.998 24.162C49.6327 24.3767 50.146 24.582 50.538 24.778C50.9393 24.974 51.2847 25.2587 51.574 25.632C51.8633 26.0053 52.008 26.486 52.008 27.074C52.008 27.634 51.8633 28.1427 51.574 28.6C51.294 29.0573 50.8833 29.4213 50.342 29.692C49.8007 29.9627 49.1613 30.098 48.424 30.098ZM55.8753 22.09V24.078H59.0813V25.926H55.8753V28.082H59.5013V30H53.4813V20.172H59.5013V22.09H55.8753ZM66.0675 30L64.0235 26.29H63.4495V30H61.0555V20.172H65.0735C65.8482 20.172 66.5062 20.3073 67.0475 20.578C67.5982 20.8487 68.0088 21.222 68.2795 21.698C68.5502 22.1647 68.6855 22.6873 68.6855 23.266C68.6855 23.9193 68.4988 24.5027 68.1255 25.016C67.7615 25.5293 67.2202 25.8933 66.5015 26.108L68.7695 30H66.0675ZM63.4495 24.596H64.9335C65.3722 24.596 65.6988 24.4887 65.9135 24.274C66.1375 24.0593 66.2495 23.756 66.2495 23.364C66.2495 22.9907 66.1375 22.6967 65.9135 22.482C65.6988 22.2673 65.3722 22.16 64.9335 22.16H63.4495V24.596ZM79.4143 20.172L75.9283 30H72.9323L69.4463 20.172H71.9943L74.4303 27.592L76.8803 20.172H79.4143ZM82.8089 20.172V30H80.4149V20.172H82.8089ZM84.1378 25.072C84.1378 24.1013 84.3478 23.238 84.7678 22.482C85.1878 21.7167 85.7711 21.124 86.5178 20.704C87.2738 20.2747 88.1278 20.06 89.0798 20.06C90.2464 20.06 91.2451 20.368 92.0758 20.984C92.9064 21.6 93.4618 22.44 93.7418 23.504H91.1098C90.9138 23.0933 90.6338 22.7807 90.2698 22.566C89.9151 22.3513 89.5091 22.244 89.0518 22.244C88.3144 22.244 87.7171 22.5007 87.2598 23.014C86.8024 23.5273 86.5738 24.2133 86.5738 25.072C86.5738 25.9307 86.8024 26.6167 87.2598 27.13C87.7171 27.6433 88.3144 27.9 89.0518 27.9C89.5091 27.9 89.9151 27.7927 90.2698 27.578C90.6338 27.3633 90.9138 27.0507 91.1098 26.64H93.7418C93.4618 27.704 92.9064 28.544 92.0758 29.16C91.2451 29.7667 90.2464 30.07 89.0798 30.07C88.1278 30.07 87.2738 29.86 86.5178 29.44C85.7711 29.0107 85.1878 28.418 84.7678 27.662C84.3478 26.906 84.1378 26.0427 84.1378 25.072ZM97.6018 22.09V24.078H100.808V25.926H97.6018V28.082H101.228V30H95.2078V20.172H101.228V22.09H97.6018Z" fill="#2080F7" />
</svg>
