<svg width="56" height="63" viewBox="0 0 56 63" fill="none" xmlns="http://www.w3.org/2000/svg">
<path d="M37.6603 19.7895C37.5154 19.344 37.1302 19.0196 36.6668 18.9523L31.3139 18.1758L28.9187 13.326C28.7113 12.9062 28.2837 12.6404 27.8155 12.6404C27.347 12.6405 26.9192 12.9066 26.712 13.3267L24.3196 18.1777L18.967 18.9569C18.5035 19.0244 18.1186 19.3492 17.974 19.7946C17.8294 20.2401 17.9503 20.7291 18.2857 21.0559L22.16 24.8304L21.2471 30.1617C21.168 30.6233 21.3579 31.0898 21.7369 31.3651C21.9513 31.5207 22.205 31.5998 22.46 31.5998C22.6559 31.5998 22.8526 31.5531 23.0327 31.4583L27.8197 28.94L32.6079 31.4557C33.0225 31.6737 33.5249 31.6372 33.9038 31.3617C34.2826 31.0864 34.4722 30.6198 34.393 30.1582L33.4773 24.8274L37.3496 21.051C37.6846 20.7239 37.8051 20.2349 37.6603 19.7895ZM31.2958 23.5173C31.0059 23.8001 30.8736 24.2074 30.9421 24.6066L31.5453 28.1177L28.3915 26.4608C28.033 26.2724 27.6047 26.2725 27.2463 26.461L24.0933 28.1197L24.6946 24.6081C24.763 24.209 24.6305 23.8017 24.3405 23.5191L21.7887 21.033L25.3142 20.5198C25.7149 20.4614 26.0613 20.2096 26.2405 19.8465L27.8162 16.6514L29.3938 19.8457C29.5732 20.2088 29.9197 20.4605 30.3205 20.5185L33.8462 21.0299L31.2958 23.5173Z" fill="#FB7B6B"/>
<path d="M55.4711 54.063L45.3005 36.3725C48.3719 32.5386 50.2121 27.6778 50.2121 22.3947C50.2121 10.0462 40.1659 0 27.8174 0C15.469 0 5.42276 10.0462 5.42276 22.3947C5.42276 27.6778 7.26281 32.5386 10.3343 36.3725L0.163704 54.063C-0.0698402 54.4694 -0.0523673 54.9731 0.208863 55.3623C0.470093 55.7514 0.930167 55.9584 1.39418 55.896L9.33235 54.83L12.3783 62.2376C12.5567 62.6713 12.9662 62.966 13.4343 62.9973C13.4618 62.9991 13.4893 63 13.5166 63C13.954 63 14.3612 62.7671 14.5819 62.3848L24.8494 44.6011C24.851 44.5984 24.8521 44.5955 24.8537 44.5927C25.8238 44.7215 26.8129 44.7892 27.8177 44.7892C28.8225 44.7892 29.8115 44.7215 30.7816 44.5927C30.7832 44.5954 30.7843 44.5982 30.7859 44.6011L41.0534 62.3848C41.2741 62.7671 41.6814 63 42.1187 63C42.1461 63 42.1735 62.9991 42.2011 62.9973C42.6691 62.966 43.0786 62.6713 43.2571 62.2376L46.3031 54.83L54.2413 55.896C54.7063 55.9584 55.1654 55.7514 55.4266 55.3623C55.6871 54.9731 55.7047 54.4694 55.4711 54.063ZM13.7021 58.9864L11.4848 53.5942L13.4746 50.3471C13.8297 49.7677 13.6479 49.0101 13.0684 48.6551C12.489 48.3001 11.7314 48.4819 11.3764 49.0613L9.36569 52.3425L3.54185 53.1244L12.0661 38.2977C14.8583 41.0634 18.372 43.1015 22.2968 44.1001L13.7021 58.9864ZM27.8173 42.3284C16.8258 42.3284 7.88359 33.3861 7.88359 22.3947C7.88359 11.4032 16.8258 2.46095 27.8173 2.46095C38.8088 2.46095 47.751 11.4032 47.751 22.3947C47.751 33.3861 38.8088 42.3284 27.8173 42.3284ZM46.269 52.3425L44.2583 49.0613C43.9033 48.4819 43.1457 48.2999 42.5663 48.6551C41.9868 49.0102 41.805 49.7677 42.1601 50.3471L44.1499 53.5942L41.9326 58.9864L33.3379 44.1001C37.2627 43.1015 40.7765 41.0634 43.5686 38.2977L52.0929 53.1244L46.269 52.3425Z" fill="#FB7B6B"/>
<path d="M27.8173 6.39849C25.0714 6.39849 22.3622 7.10626 19.9826 8.44551C19.3904 8.77872 19.1805 9.52907 19.5137 10.1213C19.8469 10.7135 20.5972 10.9237 21.1895 10.5902C23.2014 9.45794 25.4933 8.85944 27.8173 8.85944C35.2806 8.85944 41.3525 14.9313 41.3525 22.3947C41.3525 24.4341 40.9107 26.3936 40.0393 28.2188C39.7465 28.832 40.0063 29.5665 40.6196 29.8594C40.7907 29.9411 40.9711 29.9797 41.1489 29.9797C41.6081 29.9797 42.049 29.7212 42.2601 29.2791C43.2908 27.1202 43.8135 24.8039 43.8135 22.3947C43.8135 13.5744 36.6377 6.39849 27.8173 6.39849Z" fill="#FB7B6B"/>
<path d="M39.2673 31.7982C38.7797 31.325 38.0007 31.3366 37.5275 31.8243L37.5001 31.8523C37.0254 32.3385 37.0346 33.1176 37.5208 33.5924C37.7601 33.826 38.0703 33.9424 38.3803 33.9424C38.7001 33.9424 39.0198 33.8185 39.2608 33.5716L39.2933 33.5382C39.7667 33.0506 39.755 32.2716 39.2673 31.7982Z" fill="#FB7B6B"/>
<path d="M36.0109 34.7419C35.683 34.1467 34.9346 33.93 34.3395 34.2581C32.3546 35.3518 30.0992 35.9299 27.8173 35.9299C20.354 35.9299 14.2821 29.858 14.2821 22.3947C14.2821 20.4396 14.6895 18.554 15.4929 16.7904C15.7747 16.1719 15.5016 15.4423 14.8832 15.1605C14.2647 14.8788 13.5351 15.1517 13.2533 15.7702C12.3029 17.8563 11.821 20.0851 11.821 22.3947C11.821 31.215 18.9969 38.3909 27.8172 38.3909C30.5133 38.3909 33.1794 37.7071 35.5271 36.4134C36.1223 36.0853 36.339 35.3371 36.0109 34.7419Z" fill="#FB7B6B"/>
<path d="M17.8507 11.431C17.3535 10.9677 16.5748 10.9955 16.1117 11.4926L16.0844 11.522C15.6229 12.0209 15.6531 12.7994 16.1519 13.2608C16.3885 13.4799 16.6882 13.5881 16.9872 13.5881C17.3182 13.5881 17.6482 13.4554 17.8907 13.1933L17.9124 13.17C18.3755 12.6728 18.348 11.8941 17.8507 11.431Z" fill="#FB7B6B"/>
</svg>
