<svg width="19" height="29" viewBox="0 0 19 29" fill="none" xmlns="http://www.w3.org/2000/svg">
<path d="M9.38625 0C4.21068 0 0 4.21068 0 9.38625C0 14.0147 3.21039 20.0814 5.90361 24.3558C6.07731 24.6316 6.44163 24.7143 6.71752 24.5405C6.99322 24.3668 7.07593 24.0024 6.90214 23.7267C2.17301 16.2208 1.18039 11.7854 1.18039 9.38625C1.18039 4.86151 4.86151 1.18029 9.38635 1.18029C13.9112 1.18029 17.5923 4.86141 17.5923 9.38625C17.5923 16.7343 9.0061 27.9369 8.91935 28.0491C8.72018 28.3071 8.76768 28.6777 9.02567 28.8769C9.13308 28.9599 9.26006 29 9.38606 29C9.56251 29 9.73719 28.9211 9.85345 28.7706C10.2177 28.2993 18.7727 17.1372 18.7727 9.38615C18.7725 4.21068 14.5619 0 9.38625 0Z" fill="white"/>
<path d="M9.38622 6.39324C9.71208 6.39324 9.97636 6.12896 9.97636 5.8031C9.97636 5.47724 9.71208 5.21295 9.38622 5.21295C7.08505 5.21295 5.21291 7.08509 5.21291 9.38626C5.21291 11.6874 7.08505 13.5596 9.38622 13.5596C11.6874 13.5596 13.5595 11.6874 13.5595 9.38626C13.5595 8.46721 13.2665 7.59537 12.712 6.86487C12.515 6.6053 12.1447 6.55465 11.8851 6.75166C11.6255 6.94867 11.5748 7.31889 11.7719 7.57855C12.1692 8.10191 12.3792 8.72707 12.3792 9.38626C12.3792 11.0366 11.0366 12.3793 9.38622 12.3793C7.73588 12.3793 6.3932 11.0366 6.3932 9.38626C6.3932 7.73592 7.73598 6.39324 9.38622 6.39324Z" fill="white"/>
</svg>
