<svg width="26" height="26" viewBox="0 0 26 26" fill="none" xmlns="http://www.w3.org/2000/svg">
<path d="M18.4578 0H7.54216C6.49003 0 5.63333 0.8567 5.63333 1.90883V24.0907C5.63333 25.1433 6.49003 26 7.54216 26H18.4574C19.51 26 20.3667 25.1433 20.3667 24.0912V1.90883C20.3667 0.8567 19.51 0 18.4578 0ZM6.5 3.46667H19.5V19.9333H6.5V3.46667ZM7.54216 0.866667H18.4574C19.0324 0.866667 19.5 1.33423 19.5 1.90883V2.6H6.5V1.90883C6.5 1.33423 6.96756 0.866667 7.54216 0.866667ZM18.4578 25.1333H7.54216C6.96756 25.1333 6.5 24.6658 6.5 24.0912V20.8H19.5V24.0912C19.5 24.6658 19.0324 25.1333 18.4578 25.1333Z" fill="white"/>
<path d="M13.0001 21.2333C12.0442 21.2333 11.2668 22.0107 11.2668 22.9667C11.2668 23.9226 12.0442 24.7 13.0001 24.7C13.956 24.7 14.7334 23.9226 14.7334 22.9667C14.7334 22.0107 13.956 21.2333 13.0001 21.2333ZM13.0001 23.8333C12.5221 23.8333 12.1334 23.4446 12.1334 22.9667C12.1334 22.4887 12.5221 22.1 13.0001 22.1C13.4781 22.1 13.8668 22.4887 13.8668 22.9667C13.8668 23.4446 13.4781 23.8333 13.0001 23.8333Z" fill="white"/>
<path d="M11.2668 2.16666H13.0001C13.2397 2.16666 13.4334 1.97296 13.4334 1.73333C13.4334 1.49369 13.2397 1.29999 13.0001 1.29999H11.2668C11.0271 1.29999 10.8334 1.49369 10.8334 1.73333C10.8334 1.97296 11.0271 2.16666 11.2668 2.16666Z" fill="white"/>
<path d="M14.3 2.16666H14.7334C14.973 2.16666 15.1667 1.97296 15.1667 1.73333C15.1667 1.49369 14.973 1.29999 14.7334 1.29999H14.3C14.0604 1.29999 13.8667 1.49369 13.8667 1.73333C13.8667 1.97296 14.0604 2.16666 14.3 2.16666Z" fill="white"/>
<path d="M24.5319 1.97989C24.3624 1.81046 24.0886 1.81046 23.9191 1.97989C23.7497 2.14932 23.7497 2.42319 23.9191 2.59262C25.5381 4.21156 25.5381 6.84579 23.9191 8.46516C23.7497 8.63459 23.7497 8.90846 23.9191 9.07789C24.0036 9.16239 24.1146 9.20486 24.2255 9.20486C24.3364 9.20486 24.4474 9.16239 24.5319 9.07789C26.4888 7.12139 26.4888 3.93682 24.5319 1.97989Z" fill="white"/>
<path d="M22.7071 2.96617C22.5377 2.79674 22.2638 2.79674 22.0944 2.96617C21.9249 3.1356 21.9249 3.40947 22.0944 3.5789C22.6304 4.11494 22.9255 4.82907 22.9255 5.58914C22.9255 6.3492 22.6304 7.0629 22.0944 7.59894C21.9249 7.76837 21.9249 8.04224 22.0944 8.21167C22.1789 8.29617 22.2898 8.33864 22.4007 8.33864C22.5117 8.33864 22.6226 8.29617 22.7071 8.21167C23.4069 7.51227 23.7922 6.5806 23.7922 5.58914C23.7922 4.59767 23.4074 3.66557 22.7071 2.96617Z" fill="white"/>
<path d="M2.08092 2.59262C2.25036 2.42319 2.25036 2.14932 2.08092 1.97989C1.91149 1.81046 1.63762 1.81046 1.46819 1.97989C-0.488745 3.93682 -0.488745 7.12096 1.46819 9.07789C1.55269 9.16239 1.66362 9.20486 1.77455 9.20486C1.88549 9.20486 1.99642 9.16239 2.08092 9.07789C2.25036 8.90846 2.25036 8.63459 2.08092 8.46516C0.461555 6.84622 0.461555 4.21199 2.08092 2.59262Z" fill="white"/>
<path d="M3.90566 2.84657C3.73623 2.67714 3.46236 2.67714 3.29293 2.84657C2.5931 3.54597 2.20786 4.47764 2.20786 5.4691C2.20786 6.46057 2.5931 7.39224 3.29293 8.09207C3.37743 8.17657 3.48836 8.21904 3.5993 8.21904C3.71023 8.21904 3.82116 8.17657 3.90566 8.09207C4.0751 7.92264 4.0751 7.64877 3.90566 7.47934C3.36963 6.9433 3.07453 6.22917 3.07453 5.4691C3.07453 4.70904 3.3692 3.99534 3.90566 3.4593C4.07466 3.2903 4.07466 3.016 3.90566 2.84657Z" fill="white"/>
</svg>
