<svg width="63" height="59" viewBox="0 0 63 59" fill="none" xmlns="http://www.w3.org/2000/svg">
<path d="M58.3507 27.25L62.6395 22.8931C62.9914 22.5356 63.0966 21.9979 62.9062 21.5309C62.7157 21.0637 62.2671 20.7593 61.7693 20.7593H52.8791C51.717 15.9268 49.2781 11.5234 45.7916 7.98137C40.7254 2.8345 33.9892 0 26.8242 0C19.6592 0 12.923 2.8345 7.85666 7.98137C2.79021 13.1283 0 19.9713 0 27.25C0 34.5288 2.79021 41.3719 7.85666 46.5186C9.36324 48.0491 11.0183 49.3734 12.7876 50.4811L9.0806 57.1343C8.86502 57.5213 8.86798 57.9955 9.08848 58.3795C9.30886 58.7638 9.71356 59 10.1514 59H16.4883C16.9316 59 17.3407 58.7577 17.5591 58.3657L20.1803 53.6614C22.3256 54.2142 24.5532 54.5 26.8242 54.5C29.0951 54.5 31.3228 54.2142 33.4681 53.6614L36.0892 58.3657C36.3076 58.7577 36.7168 59 37.1601 59H43.497C43.9348 59 44.3395 58.7637 44.56 58.3796C44.7805 57.9955 44.7835 57.5213 44.5679 57.1344L40.8609 50.4813C42.6302 49.3734 44.2853 48.0492 45.7918 46.5187C49.277 42.9782 51.7172 38.573 52.8791 33.7409H61.7695C62.2671 33.7409 62.7158 33.4362 62.9063 32.9692C63.0968 32.5023 62.9914 31.9645 62.6396 31.607L58.3507 27.25ZM56.1008 26H47.5135L50.2114 23.2593H58.7989L56.1008 26ZM15.7708 56.5H12.2617L14.94 51.6934C15.8591 52.1556 16.8028 52.5645 17.7682 52.9152L15.7708 56.5ZM41.3866 56.5H37.8776L35.8802 52.9152C36.8456 52.5645 37.7893 52.1556 38.7084 51.6934L41.3866 56.5ZM44.0516 44.7509C42.4261 46.4021 40.6107 47.7899 38.6565 48.8961C38.6324 48.908 38.608 48.9193 38.5843 48.9329C38.5694 48.9415 38.5558 48.9514 38.5414 48.9605C37.0424 49.7982 35.4627 50.4709 33.8236 50.9676C33.7591 50.9806 33.6954 50.9999 33.6325 51.0239C31.4479 51.6661 29.1615 52 26.8242 52C24.4869 52 22.2005 51.6661 20.0159 51.024C19.9529 51 19.8892 50.9808 19.8246 50.9678C18.1856 50.471 16.6059 49.7984 15.1069 48.9606C15.0925 48.9515 15.079 48.9416 15.0641 48.933C15.0404 48.9194 15.0161 48.9081 14.992 48.8963C13.0378 47.79 11.2224 46.4022 9.59691 44.7509C4.99521 40.0762 2.46093 33.861 2.46093 27.25C2.46093 20.639 4.9952 14.4237 9.59678 9.74912C14.1984 5.0745 20.3165 2.5 26.8242 2.5C33.3319 2.5 39.45 5.0745 44.0516 9.74912C47.0752 12.8207 49.2317 16.6046 50.339 20.7593H49.7019C49.3756 20.7593 49.0625 20.891 48.8318 21.1254L45.5661 24.443C45.2365 22.1704 44.5133 19.9606 43.4211 17.951C43.0927 17.3466 42.3441 17.1274 41.7491 17.4609C41.1542 17.7945 40.9383 18.555 41.2667 19.1594C42.4348 21.3086 43.0873 23.6454 43.2543 26.0001H37.8289C37.555 23.4681 36.4536 21.1225 34.6549 19.2952C32.5632 17.1702 29.7822 16 26.8242 16C23.8661 16 21.0852 17.1702 18.9936 19.295C16.9019 21.42 15.75 24.245 15.75 27.25C15.75 30.255 16.9019 33.0801 18.9935 35.2049C21.0852 37.3298 23.8661 38.5 26.8242 38.5C29.7822 38.5 32.5632 37.3298 34.6548 35.205C36.4535 33.3778 37.5548 31.0321 37.8288 28.5H43.2488C42.9554 32.4075 41.3323 36.1995 38.4831 39.094C35.3689 42.2578 31.2283 44 26.8242 44C22.4201 44 18.2795 42.2578 15.1653 39.094C12.051 35.9304 10.3359 31.7241 10.3359 27.25C10.3359 22.7759 12.051 18.5696 15.1653 15.406C20.331 10.1583 28.4004 8.9955 34.7885 12.5784C35.3833 12.9119 36.1319 12.6926 36.4605 12.0883C36.7889 11.4839 36.5729 10.7235 35.978 10.3897C32.4533 8.41287 28.3031 7.625 24.2921 8.17175C20.1473 8.7365 16.3895 10.6268 13.4251 13.6383C9.84608 17.2741 7.87499 22.1081 7.87499 27.25C7.87499 32.3919 9.84608 37.226 13.425 40.8618C17.0041 44.4976 21.7627 46.5 26.8242 46.5C31.8857 46.5 36.6443 44.4976 40.2232 40.8619C43.1315 37.9076 44.9764 34.1775 45.5704 30.0616L48.8317 33.3747C49.0624 33.6091 49.3755 33.7409 49.7018 33.7409H50.3387C49.2314 37.8952 47.074 41.6805 44.0516 44.7509ZM30.8429 24.893C30.5032 24.295 29.7506 24.0903 29.1621 24.4355L26.209 26.1675C25.8282 26.3907 25.5937 26.8034 25.5937 27.25C25.5937 27.6966 25.8282 28.1093 26.209 28.3325L29.1621 30.0645C29.3559 30.1781 29.5674 30.2321 29.7762 30.2321C30.2015 30.2321 30.615 30.008 30.8429 29.607C31.0426 29.2557 31.054 28.8474 30.9112 28.5H35.3497C35.089 30.3629 34.2477 32.083 32.9146 33.4371C31.2878 35.0899 29.1249 36 26.8242 36C24.5235 36 22.3605 35.0899 20.7336 33.4371C19.1068 31.7845 18.2109 29.5872 18.2109 27.25C18.2109 24.9128 19.1068 22.7155 20.7337 21.0627C22.3605 19.4101 24.5235 18.5 26.8242 18.5C29.1249 18.5 31.2878 19.4101 32.9148 21.0629C34.2477 22.417 35.0891 24.1371 35.3498 26H30.9113C31.054 25.6525 31.0426 25.2442 30.8429 24.893ZM50.2114 31.2407L47.5135 28.5H56.1008L58.7989 31.2407H50.2114Z" fill="#FB7B6B"/>
</svg>
